/* XPM */
static char * cle_petite_xpm[] = {
"17 16 102 2",
"  	c None",
". 	c #D5D6D5",
"+ 	c #D0D1CF",
"@ 	c #C9C9C6",
"# 	c #D1D1CE",
"$ 	c #CDCECD",
"% 	c #51514F",
"& 	c #565654",
"* 	c #696965",
"= 	c #727270",
"- 	c #C2C3C1",
"; 	c #D2D3D2",
"> 	c #898A87",
", 	c #666663",
"' 	c #B7B8B4",
") 	c #959592",
"! 	c #666664",
"~ 	c #C9CAC8",
"{ 	c #CACBC9",
"] 	c #CCCDCA",
"^ 	c #A8A8A5",
"/ 	c #CCCDCB",
"( 	c #797976",
"_ 	c #A0A19F",
": 	c #949493",
"< 	c #626260",
"[ 	c #B8B8B6",
"} 	c #D2D3D1",
"| 	c #6F6F6C",
"1 	c #ABABA9",
"2 	c #A0A19E",
"3 	c #737371",
"4 	c #8D8D8D",
"5 	c #6E6E6B",
"6 	c #A2A39F",
"7 	c #A6A7A2",
"8 	c #C8C8C7",
"9 	c #A9A9A8",
"0 	c #696A68",
"a 	c #D3D3D2",
"b 	c #A3A3A2",
"c 	c #6F6F6D",
"d 	c #C1C1BD",
"e 	c #767674",
"f 	c #6D6D6A",
"g 	c #B7B8B5",
"h 	c #C7C8C6",
"i 	c #696967",
"j 	c #8E8E8C",
"k 	c #CBCCC9",
"l 	c #C2C2C0",
"m 	c #C6C7C4",
"n 	c #C9CAC7",
"o 	c #C3C4C3",
"p 	c #767774",
"q 	c #838482",
"r 	c #C1C1BE",
"s 	c #72726F",
"t 	c #646461",
"u 	c #686865",
"v 	c #838480",
"w 	c #CDCECC",
"x 	c #777773",
"y 	c #777774",
"z 	c #C4C5C3",
"A 	c #D5D6D4",
"B 	c #C4C5C1",
"C 	c #B3B3B0",
"D 	c #82827F",
"E 	c #6C6C6B",
"F 	c #C8C9C8",
"G 	c #D3D4D1",
"H 	c #8D8D8B",
"I 	c #61615E",
"J 	c #BCBDBB",
"K 	c #D3D4D3",
"L 	c #9B9B98",
"M 	c #636361",
"N 	c #BBBBB7",
"O 	c #ADADAA",
"P 	c #5B5B59",
"Q 	c #A6A6A2",
"R 	c #9F9F9C",
"S 	c #61615F",
"T 	c #BDBDBA",
"U 	c #D4D5D4",
"V 	c #BABBB7",
"W 	c #62625F",
"X 	c #A5A5A1",
"Y 	c #B1B1B0",
"Z 	c #575755",
"` 	c #ACACAA",
" .	c #9E9E9B",
"..	c #787875",
"+.	c #B5B5B4",
"@.	c #989997",
"#.	c #676764",
"$.	c #9D9D9B",
"%.	c #BABBB8",
"&.	c #646463",
"*.	c #929390",
"=.	c #CECFCE",
". . . + @ # . . . . . . . . . . . ",
". . $ % & * = - . . . . . . . . . ",
". . ; > , ' ) ! ~ . . . . . . . . ",
"{ ] . . ^ , / ( _ . . . . . . . . ",
": < [ . } | 1 2 3 . . . . . . . . ",
"4 5 < 6 7 < 8 9 0 a . . . . . . . ",
"b c d e f g . h i j . . . . . . . ",
"k 5 : l m n ; . o p q ] . . . . . ",
". r s t * u v $ . w x y z . . . . ",
". . A B C g D E F . G H I J . . . ",
". . . . . . K L M N . K O P Q } . ",
". . . . . . . } R S T U U V W X . ",
". . . . . . . . . Y Z ` . .  .... ",
". . . . . . . . . . +.W @.{ #.$.. ",
". . . . . . . . . . . %.c &.*.=.. ",
". . . . . . . . . . . . . . . . . "};
